<?xml version="1.0" standalone="no"?>
<!DOCTYPE svg PUBLIC "-//W3C//DTD SVG 20010904//EN"
 "http://www.w3.org/TR/2001/REC-SVG-20010904/DTD/svg10.dtd">
<svg version="1.0" xmlns="http://www.w3.org/2000/svg"
 width="320.000000pt" height="320.000000pt" viewBox="0 0 320.000000 320.000000"
 preserveAspectRatio="xMidYMid meet">

<g transform="translate(0.000000,320.000000) scale(0.100000,-0.100000)"
fill="#000000" stroke="none">
<path d="M1553 2740 c-57 -12 -97 -34 -151 -83 -138 -128 -137 -347 2 -475 70
-65 125 -86 221 -86 66 0 90 5 136 27 200 96 251 359 101 519 -76 82 -200 121
-309 98z"/>
<path d="M1440 2007 c-105 -30 -167 -79 -196 -152 -13 -35 -15 -85 -12 -331
l3 -289 33 -70 c18 -38 44 -81 57 -95 35 -37 39 -51 85 -330 23 -140 48 -269
56 -285 24 -51 59 -65 166 -65 104 0 133 10 159 55 11 18 34 126 59 275 49
294 55 318 87 350 39 38 73 115 89 197 20 109 20 500 -2 572 -20 67 -73 121
-150 152 -52 20 -79 23 -224 26 -112 2 -180 -2 -210 -10z"/>
</g>
</svg>
